PathFileType	4	(X/Y/Z)	D:\TRACE\v60_Jaco2_6-2-23\BothDRS_Motion1_6-platform.trc
DataRate	CameraRate	NumFrames	NumMarkers	Units	OrigDataRate	OrigDataStartFrame	OrigNumFrames
100.00	100.00	      72	5	mm	100.00	6563	      7500
Frame#	Time	Left_Front			Right_Front			Left_Aft			Right_Aft			Post			
		X1	Y1	Z1	X2	Y2	Z2	X3	Y3	Z3	X4	Y4	Z4	X5	Y5	Z5	

6563	65.620	-763.26624	13.70300	-638.05353	806.77740	15.56017	-643.04883	-671.23743	4.05160	497.14169	770.65375	3.43365	506.72797	22.86239	1315.27393	-952.03552	
6564	65.630	-762.31573	14.53645	-638.04987	806.81097	15.69695	-643.37439	-670.75677	3.72421	497.12451	771.61646	3.15188	506.89908	23.46202	1316.01611	-950.75970	
6565	65.640	-761.77820	14.70454	-637.86584	807.61182	16.24246	-643.17950	-670.16479	3.53339	497.17902	772.48431	3.02447	506.93796	24.01500	1316.59302	-949.28345	
6566	65.650	-761.18347	14.96650	-637.59973	808.73077	16.57338	-642.89764	-669.37891	3.20274	497.43579	773.15881	2.68993	507.04370	24.84804	1317.44885	-948.19312	
6567	65.660	-760.67059	15.52267	-637.56445	809.33313	16.62212	-642.80096	-668.46021	2.68159	497.72739	773.32416	1.89809	507.25470	25.37153	1318.00024	-946.80859	
6568	65.670	-759.97919	16.14869	-637.42834	809.98340	17.43920	-642.94110	-667.84607	2.30669	497.72174	774.22736	1.53389	507.22723	26.31446	1318.71753	-945.87274	
6569	65.680	-759.03192	16.55317	-637.35272	810.57855	18.11629	-642.54730	-667.33624	1.79614	497.84390	775.10168	1.14118	507.34177	27.32314	1319.92432	-944.77032	
6570	65.690	-758.28363	17.50105	-637.11877	811.42426	18.92145	-642.22070	-666.65076	1.42847	497.97729	775.74634	0.88313	507.66495	27.68965	1320.66455	-943.80737	
6571	65.700	-757.67139	18.14939	-636.87054	812.01038	19.45683	-642.27551	-665.92444	1.05477	498.10037	776.36548	0.57527	507.87512	28.02293	1321.53748	-942.65125	
6572	65.710	-757.31549	18.39881	-636.63550	812.62775	19.89293	-642.03473	-665.30518	0.59415	498.33755	776.88000	0.07609	507.93240	28.65383	1322.30530	-941.44702	
6573	65.720	-756.89294	19.13213	-636.73938	813.08447	20.26035	-641.97009	-664.86041	0.21313	498.51465	777.38904	-0.39511	508.07513	29.22864	1322.94678	-940.06360	
6574	65.730	-756.37402	19.73462	-636.61011	813.45026	20.57386	-642.06818	-664.28693	-0.24097	498.45303	777.83203	-0.68319	508.22559	29.93897	1323.70996	-938.33295	
6575	65.740	-755.72620	20.21349	-636.58344	814.09570	21.15099	-641.98059	-663.71967	-0.27067	498.60147	778.47650	-0.97068	508.12497	30.20656	1324.21631	-936.99194	
6576	65.750	-755.19556	20.60889	-636.50250	814.66266	21.64451	-641.65015	-663.31732	-0.48782	498.68933	779.18835	-1.21430	508.20499	31.30943	1324.87683	-935.74719	
6577	65.760	-754.39447	20.86253	-636.34528	815.17407	22.05270	-641.46356	-662.60919	-0.95397	498.90894	779.72693	-1.43205	508.27151	31.69980	1325.45752	-934.68323	
6578	65.770	-754.12891	21.05205	-636.15802	815.47333	22.22334	-641.52802	-662.20313	-1.18374	499.16003	780.09601	-1.83792	508.23053	32.07762	1325.84326	-934.12744	
6579	65.780	-753.60638	21.31668	-636.09174	816.30298	22.81592	-641.19067	-661.66711	-1.65400	499.38443	780.30859	-2.21452	508.24139	32.64778	1326.28430	-933.78503	
6580	65.790	-753.11719	21.88502	-636.16827	816.75671	23.17717	-641.07855	-661.19220	-2.05031	499.63110	780.81628	-2.37192	508.40976	32.91066	1327.13513	-933.57733	
6581	65.800	-752.80981	22.34973	-635.89612	817.21643	23.71683	-641.07697	-660.93243	-1.99181	499.13599	781.43793	-2.63889	508.50562	32.97796	1327.88721	-933.46808	
6582	65.810	-752.53595	22.79624	-635.73083	817.61963	24.21829	-640.91254	-660.42328	-2.39929	499.28906	781.75897	-3.02286	508.66299	33.36020	1328.44495	-932.98871	
6583	65.820	-752.35156	23.49608	-635.48340	817.88092	24.73906	-640.82526	-660.18475	-2.73508	499.26706	781.87323	-3.40730	508.81219	34.45909	1329.31641	-932.36938	
6584	65.830	-752.01288	24.04099	-635.54620	818.27631	25.18515	-640.73492	-659.91492	-3.15226	499.27661	782.43671	-3.84310	508.44974	34.37679	1329.89343	-931.49463	
6585	65.840	-751.61646	24.37455	-635.60541	818.62030	25.68976	-640.48199	-659.71771	-3.42367	499.35852	782.52209	-4.22249	508.44821	34.74766	1330.46008	-930.40924	
6586	65.850	-751.36218	24.79181	-635.28961	818.91254	26.19143	-640.32202	-659.42902	-3.74885	499.54327	782.76105	-4.39535	508.62726	35.14021	1331.38293	-929.06256	
6587	65.860	-751.14362	25.36127	-635.17603	819.05072	26.50723	-640.37518	-659.22455	-4.05300	499.65097	782.92261	-4.77476	508.71231	34.83326	1332.00781	-927.62109	
6588	65.870	-751.02600	25.70728	-634.99139	819.12274	26.96291	-640.16553	-659.01318	-4.43598	499.80136	783.35468	-5.02000	509.48218	35.49362	1332.36401	-925.62976	
6589	65.880	-750.93762	25.99729	-634.79901	819.20850	27.43258	-639.98212	-658.81281	-4.61901	499.83929	783.33588	-5.55920	509.46893	35.04782	1333.15002	-923.81299	
6590	65.890	-750.74390	26.24076	-634.70654	819.27924	27.78596	-639.92236	-658.77740	-4.91320	499.97406	783.10382	-5.75985	509.62396	35.23985	1333.50903	-921.98761	
6591	65.900	-750.62378	26.58009	-634.78711	819.37701	28.12304	-639.79694	-658.69641	-5.24757	500.05093	783.14014	-5.86616	509.74844	35.44769	1334.00208	-920.87671	
6592	65.910	-750.45056	26.92156	-634.74469	819.50952	28.43395	-639.74231	-658.66791	-5.38493	500.09296	783.39825	-6.03052	509.82684	35.74674	1334.41064	-919.63184	
6593	65.920	-750.45386	27.54819	-634.54541	819.53394	28.83714	-639.72888	-658.62500	-5.49475	500.08429	783.57581	-6.36407	509.94141	35.54831	1334.99792	-919.17706	
6594	65.930	-750.52924	28.05134	-634.39105	819.49231	29.08385	-639.67651	-658.56842	-5.65151	500.19601	783.67944	-6.67313	509.90399	35.63929	1335.50061	-919.37323	
6595	65.940	-750.44806	28.26263	-634.38104	819.56219	29.39469	-639.62939	-658.56409	-5.98235	500.29568	783.61554	-7.04637	509.97009	35.70298	1335.98071	-919.59100	
6596	65.950	-750.33179	28.59645	-634.35468	819.56653	29.74322	-639.52936	-658.60114	-6.21049	500.35837	783.62885	-7.21780	510.04080	35.76102	1336.46057	-919.95074	
6597	65.960	-750.36969	28.82837	-634.22876	819.67828	30.08963	-639.28552	-658.58447	-6.48632	500.41193	783.77808	-7.39683	510.07095	35.93612	1336.87402	-919.96283	
6598	65.970	-750.38342	29.12807	-634.11804	819.69232	30.53269	-639.09485	-658.53131	-6.70611	500.48477	783.90485	-7.53814	510.12357	36.14820	1337.54578	-919.49969	
6599	65.980	-750.39771	29.46064	-633.87494	819.66235	30.82012	-639.01599	-658.53424	-7.00082	500.53775	783.81281	-7.89611	510.18713	35.98132	1338.05298	-919.09302	
6600	65.990	-750.49579	29.80815	-633.64209	819.53821	31.26217	-639.01434	-658.52148	-7.22720	500.60275	783.63599	-8.27789	510.22006	36.00817	1338.45508	-918.58972	
6601	66.000	-750.56976	30.11552	-633.53473	819.47571	31.70466	-639.02509	-658.47186	-7.49461	500.59543	783.48615	-8.57587	510.24353	35.86587	1338.81433	-917.48285	
6602	66.010	-750.47559	30.39077	-633.55139	819.39368	31.85626	-638.91010	-658.48108	-7.69722	500.55020	783.55042	-8.66565	510.24155	36.10048	1339.25439	-916.14142	
6603	66.020	-750.45599	30.70248	-633.59424	819.03827	31.59601	-638.93542	-658.52435	-7.83925	500.57199	783.63983	-8.84887	510.32126	35.87885	1339.80103	-914.59613	
6604	66.030	-750.68274	30.92674	-633.55267	819.08624	32.10366	-638.74493	-658.80157	-8.06960	500.61868	783.60907	-9.11250	510.38077	35.77868	1340.18774	-913.00641	
6605	66.040	-750.93445	31.27464	-633.49933	818.89166	32.47829	-638.70575	-658.95923	-8.36493	500.73792	783.38928	-9.44781	510.35516	35.68007	1340.56860	-911.74384	
6606	66.050	-751.11810	31.67689	-633.54633	818.60187	32.90909	-638.63055	-659.24286	-8.63118	500.81747	782.92316	-9.70084	510.46259	34.89003	1340.93518	-910.34717	
6607	66.060	-751.31335	32.03396	-633.44891	818.36151	33.40551	-638.63031	-659.41272	-8.78996	500.92520	782.80450	-9.90882	510.55432	34.67104	1341.26184	-909.62347	
6608	66.070	-751.50793	32.49262	-633.48602	818.24707	33.75232	-638.57440	-659.67572	-8.93938	501.08353	782.62555	-10.02090	510.67374	34.38940	1341.88306	-908.74963	
6609	66.080	-751.63098	32.61412	-633.45142	817.98834	33.92549	-638.54352	-659.88269	-9.01827	501.24527	782.47754	-10.13908	510.77484	34.25745	1342.26770	-908.59216	
6610	66.090	-751.95770	32.87593	-633.30505	817.72015	33.94604	-638.43713	-660.18561	-9.34487	501.29489	782.14038	-10.37053	510.83386	34.26176	1342.58521	-908.58624	
6611	66.100	-752.34033	33.04132	-633.11334	817.45001	34.16830	-638.26831	-660.34137	-9.54721	501.22055	781.61066	-10.79408	510.80710	34.18237	1342.89453	-908.79285	
6612	66.110	-752.83698	33.27404	-632.93195	817.07867	34.37730	-638.15955	-660.58575	-9.63483	501.39484	781.23151	-10.94166	510.80267	33.60854	1343.18127	-909.02234	
6613	66.120	-753.11060	33.44090	-632.88196	816.55872	34.66179	-638.22644	-661.00189	-10.04755	501.30881	781.10571	-11.01194	510.82092	33.22440	1343.56262	-908.90491	
6614	66.130	-753.34674	33.67037	-632.79663	816.61639	35.06156	-637.84338	-661.15503	-10.41635	501.39926	780.95496	-11.00737	510.87106	32.90772	1343.96143	-908.75403	
6615	66.140	-753.70996	33.88543	-632.78766	816.19336	35.31580	-637.86322	-661.10150	-10.89068	501.59027	780.62213	-11.23775	510.94904	32.67465	1344.23975	-908.23010	
6616	66.150	-754.18427	34.17079	-632.72101	815.86969	35.54106	-637.77399	-661.91003	-10.30999	501.49066	780.08014	-11.48543	511.16110	32.35635	1344.41199	-907.58405	
6617	66.160	-754.57544	34.28627	-632.70099	815.50372	35.65541	-637.74445	-662.44824	-10.59227	501.40237	779.63025	-11.68516	511.26013	31.80036	1344.83508	-906.50739	
6618	66.170	-754.86169	34.36089	-632.57959	815.13916	35.88713	-637.58728	-663.00262	-10.71075	501.37845	778.94641	-11.96049	511.27124	31.30749	1345.20605	-905.53772	
6619	66.180	-755.31812	34.68639	-632.63354	814.77832	36.09539	-637.52356	-663.62299	-10.62273	501.48813	778.80243	-11.94522	511.33136	30.91823	1345.42334	-904.27533	
6620	66.190	-755.93372	34.85022	-632.35522	814.17322	36.39962	-637.63812	-663.93085	-10.67097	501.68173	778.47900	-12.01335	511.41498	30.62942	1345.70020	-903.29120	
6621	66.200	-756.50220	35.12067	-632.23297	813.61957	36.65030	-637.59375	-664.26117	-10.92059	501.85281	777.83551	-12.22892	511.57535	29.66360	1345.92236	-902.60089	
6622	66.210	-756.78430	35.22033	-632.09680	813.17365	36.76308	-637.51239	-665.04327	-10.82489	501.84692	777.38135	-12.39872	511.64761	29.25866	1346.15527	-902.09497	
6623	66.220	-757.11249	35.45281	-632.22198	812.74738	36.86318	-637.40668	-665.41339	-11.12921	501.84451	776.66742	-12.54811	511.76208	29.07453	1346.24023	-901.91364	
6624	66.230	-757.56567	35.50398	-632.21912	812.34961	36.98185	-637.34314	-665.88989	-11.09318	502.00482	776.47833	-12.50993	511.66553	28.58877	1346.54639	-902.15704	
6625	66.240	-758.15131	36.00159	-632.43970	811.84924	37.21252	-637.26068	-666.44086	-11.21595	502.10342	776.09198	-12.57242	511.71164	28.42153	1346.78333	-902.29694	
6626	66.250	-758.75983	36.08286	-632.13147	811.24170	37.38837	-637.36536	-666.94611	-11.34337	502.09756	775.69830	-12.61632	511.72018	28.14734	1346.98743	-902.42670	
6627	66.260	-759.48230	36.19098	-632.11554	810.78485	37.60099	-637.28528	-667.40350	-11.48202	502.12964	774.89484	-12.77357	511.78122	27.52322	1347.22937	-902.52509	
6628	66.270	-760.03821	36.24441	-631.98248	810.21088	37.61259	-637.30457	-667.79144	-11.68419	502.08215	774.04114	-12.93580	511.80774	26.71077	1347.38342	-902.41119	
6629	66.280	-760.30334	36.39227	-631.89764	809.59235	37.60970	-637.10828	-668.53827	-11.94382	501.96228	773.58661	-13.10424	511.82468	26.00177	1347.62952	-902.01794	
6630	66.290	-760.75610	36.56405	-631.97986	809.13263	37.62766	-637.01221	-669.50464	-11.35778	501.57162	773.26501	-13.04345	511.82816	25.79887	1347.96912	-901.82672	
6631	66.300	-761.28998	36.74629	-632.20776	808.53229	37.92230	-637.05878	-669.62555	-11.70414	501.77951	772.94647	-13.11986	511.78699	24.95087	1348.14148	-901.25397	
6632	66.310	-762.04492	36.92978	-632.04047	807.93213	38.10441	-637.08276	-670.29071	-11.88243	501.81766	772.20953	-13.40194	511.80951	24.30645	1348.14417	-900.47632	
6633	66.320	-762.90118	37.00601	-631.94580	807.30261	38.17197	-637.05658	-670.81622	-12.07256	501.96539	771.43976	-13.49474	511.99127	23.90186	1348.18140	-899.56219	
6634	66.330	-763.30127	37.03938	-631.69403	806.67126	38.22286	-636.91846	-671.02368	-12.53570	502.53345	770.63452	-13.53777	511.99063	23.14996	1348.30029	-898.78345	
